<?xml version="1.0" encoding="utf-8"?>
<!-- Generator: Adobe Illustrator 24.0.2, SVG Export Plug-In . SVG Version: 6.00 Build 0)  -->
<svg version="1.1" id="_x32_" xmlns="http://www.w3.org/2000/svg" xmlns:xlink="http://www.w3.org/1999/xlink" x="0px" y="0px"
	 viewBox="0 0 26 26" style="enable-background:new 0 0 26 26;" xml:space="preserve">
<style type="text/css">
	.st0{fill:#4B4B4B;}
</style>
<g>
	<path class="st0" d="M13,6.1L7.4,0.6C6.7,0,5.7-0.2,4.9,0.2C4,0.5,3.5,1.4,3.5,2.3v13.9c0,0.9,0.4,1.8,1.1,2.5l6.9,6.7
		c0.9,0.9,2.3,0.9,3.2,0l6.9-6.7c0.7-0.7,1.1-1.5,1.1-2.5V2.3c0-0.9-0.6-1.8-1.4-2.1c-0.9-0.4-1.8-0.2-2.5,0.5L13,6.1z M19.3,15.8
		c0,0.3-0.1,0.6-0.4,0.8L13,22.4V10.6l1.1-1.1l4.2-4c0.2-0.2,0.4-0.2,0.6-0.1c0.2,0.1,0.4,0.3,0.4,0.5V15.8z"/>
</g>
</svg>
